HIERARCHY
ROOT Hips
{
	OFFSET 0.000000 0.000000 0.000000
	CHANNELS 6 Xposition Yposition Zposition Xrotation Yrotation Zrotation
	JOINT LeftUpLeg_virtual
	{
		OFFSET 0.000000 0.000000 0.000000
		CHANNELS 3 Xrotation Yrotation Zrotation
		JOINT LeftUpLeg
		{
			OFFSET 11.394100 -6.187798 -0.413800
			CHANNELS 3 Xrotation Yrotation Zrotation
			JOINT LeftLeg
			{
				OFFSET 0.430247 -32.302673 3.732800
				CHANNELS 3 Xrotation Yrotation Zrotation
				JOINT LeftFoot
				{
					OFFSET -0.430247 -48.264931 -6.423300
					CHANNELS 3 Xrotation Yrotation Zrotation
					JOINT LeftToeBase
					{
						OFFSET 4.230900 -16.068199 23.438400
						CHANNELS 3 Xrotation Yrotation Zrotation
						JOINT LeftToe_End
						{
							OFFSET 4.510700 0.695400 19.974600
							CHANNELS 3 Xrotation Yrotation Zrotation
							End Site
							{
								OFFSET 0 0 0
							}
						}
					}
				}
			}
		}
	}
	JOINT RightUpLeg_virtual
	{
		OFFSET 0.000000 0.000000 0.000000
		CHANNELS 3 Xrotation Yrotation Zrotation
		JOINT RightUpLeg
		{
			OFFSET -11.333700 -6.187798 -0.413800
			CHANNELS 3 Xrotation Yrotation Zrotation
			JOINT RightLeg
			{
				OFFSET -0.430392 -32.302628 3.733000
				CHANNELS 3 Xrotation Yrotation Zrotation
				JOINT RightFoot
				{
					OFFSET 0.430392 -48.264973 -6.423500
					CHANNELS 3 Xrotation Yrotation Zrotation
					JOINT RightToeBase
					{
						OFFSET -4.230900 -16.068199 23.438400
						CHANNELS 3 Xrotation Yrotation Zrotation
						JOINT RightToe_End
						{
							OFFSET -4.510700 0.695400 19.974600
							CHANNELS 3 Xrotation Yrotation Zrotation
							End Site
							{
								OFFSET 0 0 0
							}
						}
					}
				}
			}
		}
	}
	JOINT Spine_virtual
	{
		OFFSET 0.000000 0.000000 0.000000
		CHANNELS 3 Xrotation Yrotation Zrotation
		JOINT Spine
		{
			OFFSET -0.002400 12.777504 0.315300
			CHANNELS 3 Xrotation Yrotation Zrotation
			JOINT Spine1
			{
				OFFSET -0.002067 5.816869 0.032633
				CHANNELS 3 Xrotation Yrotation Zrotation
				JOINT Spine1_split
				{
					OFFSET -0.002067 5.816869 0.032633
					CHANNELS 3 Xrotation Yrotation Zrotation
					JOINT Spine2
					{
						OFFSET -0.002067 5.816869 0.032633
						CHANNELS 3 Xrotation Yrotation Zrotation
						JOINT Neck_virtual
						{
							OFFSET 0.000000 0.000000 0.000000
							CHANNELS 3 Xrotation Yrotation Zrotation
							JOINT Neck
							{
								OFFSET -0.003700 21.199493 -0.826900
								CHANNELS 3 Xrotation Yrotation Zrotation
								JOINT Head
								{
									OFFSET 0.000000 20.442200 4.834800
									CHANNELS 3 Xrotation Yrotation Zrotation
									JOINT HeadTop_End
									{
										OFFSET 0.000000 34.668396 4.968400
										CHANNELS 3 Xrotation Yrotation Zrotation
										End Site
										{
											OFFSET 0 0 0
										}
									}
								}
							}
						}
						JOINT LeftShoulder_virtual
						{
							OFFSET 0.000000 0.000000 0.000000
							CHANNELS 3 Xrotation Yrotation Zrotation
							JOINT LeftShoulder
							{
								OFFSET 3.288150 8.794197 -1.372250
								CHANNELS 3 Xrotation Yrotation Zrotation
								JOINT LeftShoulder_split
								{
									OFFSET 3.288150 8.794197 -1.372250
									CHANNELS 3 Xrotation Yrotation Zrotation
									JOINT LeftArm
									{
										OFFSET 11.953299 -2.279007 -0.146200
										CHANNELS 3 Xrotation Yrotation Zrotation
										JOINT LeftForeArm
										{
											OFFSET 18.448900 0.000000 0.000000
											CHANNELS 3 Xrotation Yrotation Zrotation
											JOINT LeftHand
											{
												OFFSET 29.527798 0.000000 0.000000
												CHANNELS 3 Xrotation Yrotation Zrotation
												End Site
												{
													OFFSET 0 0 0
												}
											}
										}
									}
								}
							}
						}
						JOINT RightShoulder_virtual
						{
							OFFSET 0.000000 0.000000 0.000000
							CHANNELS 3 Xrotation Yrotation Zrotation
							JOINT RightShoulder
							{
								OFFSET -3.249400 8.794197 -1.372250
								CHANNELS 3 Xrotation Yrotation Zrotation
								JOINT RightShoulder_split
								{
									OFFSET -3.249400 8.794197 -1.372250
									CHANNELS 3 Xrotation Yrotation Zrotation
									JOINT RightArm
									{
										OFFSET -11.953299 -2.279007 -0.146200
										CHANNELS 3 Xrotation Yrotation Zrotation
										JOINT RightForeArm
										{
											OFFSET -18.448900 0.000000 0.000000
											CHANNELS 3 Xrotation Yrotation Zrotation
											JOINT RightHand
											{
												OFFSET -29.527802 0.000000 0.000000
												CHANNELS 3 Xrotation Yrotation Zrotation
												End Site
												{
													OFFSET 0 0 0
												}
											}
										}
									}
								}
							}
						}
					}
				}
			}
		}
	}
}
MOTION
Frames: 10
Frame Time: 0.03333333
4.503891 96.724686 -9.837414 0.000000 0.000000 0.000000 18.930665 23.974896 3.450798 -41.697584 16.258743 13.571485 31.317927 -6.003019 -0.167074 16.687223 33.075174 -27.295473 1.679796 -0.374456 0.105852 0.000000 0.000000 0.000000 19.272589 23.082431 4.025455 -62.131451 -12.683815 -12.642129 34.110795 8.706459 -6.628664 0.893495 -13.015686 9.487432 11.613988 4.968786 -13.304222 0.000000 0.000000 0.000000 17.972154 24.356304 5.221817 13.257621 -3.770356 2.123857 7.183143 0.830467 -2.383449 0.048037 -0.450391 0.129925 0.000000 0.000000 0.000000 7.980007 3.589342 -3.461177 -6.672273 3.461090 2.130811 -24.140906 9.068161 -14.122891 0.000000 0.000000 0.000000 8.150057 1.921714 -3.044347 3.489543 -0.953877 -11.260825 5.127998 -4.503127 -2.669127 -32.896080 4.509895 -49.681956 6.241211 -41.827949 -1.654256 0.000000 0.000000 0.000000 8.814354 2.418199 -2.979897 -0.043027 17.094690 4.110578 7.214532 4.155394 2.859505 -17.209654 -18.912548 58.118326 -16.181181 42.046033 7.982872 0.000000 0.000000 0.000000 
4.506573 97.869598 -6.952885 0.000000 0.000000 0.000000 18.792355 23.083811 3.409231 -42.238699 15.209943 12.851466 29.385523 -4.482503 0.028384 16.945824 33.498519 -26.497960 2.185958 -0.488412 0.844384 0.000000 0.000000 0.000000 19.938138 21.950572 3.976435 -59.978268 -12.508124 -11.881987 33.346800 8.678566 -6.818226 1.492619 -12.678456 10.076246 10.759308 5.205711 -12.879504 0.000000 0.000000 0.000000 19.287264 24.757909 4.326417 12.589620 -3.222906 2.502435 7.161143 1.093810 -2.177807 0.071919 -0.258128 0.138747 0.000000 0.000000 0.000000 7.951991 3.806674 -3.366834 -6.471484 3.017088 1.772262 -23.922446 8.396512 -13.689236 0.000000 0.000000 0.000000 8.098165 2.154652 -3.046444 3.447627 -0.442011 -11.141169 4.334530 -2.553456 -1.422169 -31.328319 6.050935 -49.065565 5.834704 -39.714350 -1.873648 0.000000 0.000000 0.000000 9.114657 2.707036 -2.939968 0.197330 16.979073 4.146447 5.241755 3.444076 2.097094 -17.726759 -21.690569 57.684820 -16.517948 41.451230 8.270357 0.000000 0.000000 0.000000 
4.619660 99.325012 -3.155338 0.000000 0.000000 0.000000 18.365813 22.882928 3.562639 -42.324381 14.444368 11.193929 26.151664 -3.106456 0.623832 16.411573 33.556275 -25.112215 2.486067 -0.834585 2.024445 0.000000 0.000000 0.000000 19.968717 21.402429 3.949017 -55.924387 -12.747185 -10.932841 32.551449 8.407101 -7.015429 0.187043 -12.656010 9.977691 8.232019 5.822715 -11.437166 0.000000 0.000000 0.000000 20.025836 25.219097 3.576700 12.101114 -2.015856 3.135714 7.273966 1.678439 -1.700072 0.013892 -0.185095 0.119351 0.000000 0.000000 0.000000 8.125145 4.338062 -2.997742 -6.837381 2.273968 1.158859 -23.507662 5.699682 -13.517922 0.000000 0.000000 0.000000 8.095790 2.717812 -2.787530 3.376629 0.183149 -11.319487 3.961240 -1.196306 -0.007323 -28.472726 7.944221 -48.256065 5.169563 -38.294303 -1.827727 0.000000 0.000000 0.000000 9.495259 3.304464 -2.598128 0.472813 16.971461 4.135335 3.330269 2.647291 1.435096 -19.836241 -23.632501 54.997824 -18.008323 40.832708 9.561699 0.000000 0.000000 0.000000 
5.042854 100.369980 0.921780 0.000000 0.000000 0.000000 17.534047 23.533559 3.837208 -42.619144 14.168912 9.165844 23.656085 -2.186747 1.464091 16.045827 32.784925 -23.748549 1.814867 -1.371914 3.454038 0.000000 0.000000 0.000000 19.338067 21.349266 4.006902 -50.659773 -13.448549 -10.030940 32.401977 7.858826 -7.192448 -3.347278 -13.198422 8.889271 5.161346 6.604870 -9.504214 0.000000 0.000000 0.000000 19.605819 25.825242 3.164139 11.954889 -0.377805 3.784007 7.476521 2.465827 -1.065406 -0.028448 -0.253063 0.107996 0.000000 0.000000 0.000000 8.370810 5.078282 -2.390527 -7.642537 1.331424 0.346913 -22.743423 0.895343 -13.406818 0.000000 0.000000 0.000000 8.058395 3.499448 -2.322975 3.389618 0.854782 -11.596256 4.212150 -0.800624 1.152468 -25.086445 9.462610 -47.967449 4.411462 -37.605792 -1.468823 0.000000 0.000000 0.000000 9.867260 4.111189 -2.043411 0.674760 17.139475 3.977661 1.489649 1.937592 0.851479 -23.346445 -23.665661 50.812759 -20.081687 40.083798 11.324133 0.000000 0.000000 0.000000 
5.629851 100.616287 5.077019 0.000000 0.000000 0.000000 15.985841 24.640164 4.316230 -43.903671 14.592926 7.386506 23.572928 -1.622339 2.309997 15.941323 31.245902 -22.119863 0.255337 -1.991135 4.933283 0.000000 0.000000 0.000000 18.254591 21.706625 4.157661 -45.072920 -14.653662 -9.403849 33.739707 7.197328 -7.298680 -8.973053 -14.073428 7.022408 3.348219 7.365714 -7.958046 0.000000 0.000000 0.000000 18.116278 26.906873 3.064392 12.143661 1.388498 4.197954 7.674132 3.316030 -0.381689 -0.069556 -0.253339 0.065394 0.000000 0.000000 0.000000 8.522096 5.862356 -1.616726 -8.614655 0.286549 -0.562906 -21.514104 -5.994107 -13.171800 0.000000 0.000000 0.000000 7.886770 4.329067 -1.750360 3.512803 1.640696 -11.813335 4.211769 -1.061858 2.103588 -21.410667 10.380095 -48.446422 3.596281 -37.489809 -0.841915 0.000000 0.000000 0.000000 10.048316 4.981992 -1.382038 0.704669 17.514780 3.544160 0.773589 1.366570 0.383782 -27.849753 -21.193387 46.212691 -22.148552 39.337829 12.994767 0.000000 0.000000 0.000000 
6.367403 99.750534 8.793629 0.000000 0.000000 0.000000 13.902582 25.427398 4.897883 -46.204355 15.660623 6.385715 26.257674 -1.203500 3.050543 15.458188 29.433112 -19.719344 -0.929253 -2.590062 6.018070 0.000000 0.000000 0.000000 16.718917 22.587663 4.237604 -39.967911 -16.485054 -9.137592 36.797996 6.788802 -7.305805 -15.748821 -14.918166 5.178398 3.384437 8.121009 -7.658862 0.000000 0.000000 0.000000 15.795613 28.136464 3.258174 12.491209 2.994885 4.192313 7.729095 4.055873 0.257247 0.016983 -0.221797 -0.012056 0.000000 0.000000 0.000000 8.377816 6.522744 -0.784432 -9.453562 -0.685714 -1.494325 -19.775121 -14.420157 -12.391953 0.000000 0.000000 0.000000 7.511055 5.057339 -1.163529 3.737433 2.477070 -11.661075 3.887853 -1.798614 2.839193 -17.458416 10.666449 -49.444310 2.699743 -38.259489 -0.066909 0.000000 0.000000 0.000000 9.953306 5.765862 -0.726877 0.539797 18.035319 2.680351 1.002963 1.103068 -0.033562 -32.365729 -16.023127 42.589699 -23.598205 38.793466 14.056498 0.000000 0.000000 0.000000 
7.010078 98.157402 12.218891 0.000000 0.000000 0.000000 11.693380 25.751227 5.325591 -48.503933 16.975809 5.955970 30.395117 -0.790022 3.678150 13.593715 27.886076 -16.297356 -1.057143 -3.100699 6.564736 0.000000 0.000000 0.000000 15.088441 23.811108 4.190117 -35.405255 -18.870196 -9.034199 40.608149 6.857445 -7.316278 -22.370452 -15.700269 4.549467 4.044246 8.838924 -9.082694 0.000000 0.000000 0.000000 13.084193 29.156100 3.460197 12.721021 4.243350 3.776493 7.562687 4.567535 0.777149 0.174394 -0.165153 -0.089141 0.000000 0.000000 0.000000 7.853544 6.969487 0.011101 -9.768434 -1.476414 -2.358279 -17.504259 -23.343884 -10.751636 0.000000 0.000000 0.000000 6.904970 5.580150 -0.679178 4.047168 3.386526 -11.051126 3.674772 -2.874315 3.241683 -13.118568 10.647210 -50.392060 1.577505 -39.891037 0.583732 0.000000 0.000000 0.000000 9.553811 6.343061 -0.186685 0.241595 18.422485 1.302726 1.435163 0.733134 -0.078272 -36.253001 -8.879146 40.425298 -24.181250 38.770968 14.292379 0.000000 0.000000 0.000000 
7.606772 96.466438 15.284912 0.000000 0.000000 0.000000 9.905408 25.822871 5.279013 -49.713798 18.111123 6.029886 34.221840 -0.897829 4.212252 10.619427 26.388987 -12.738568 -0.684080 -3.508163 6.957372 0.000000 0.000000 0.000000 13.583566 25.228622 3.850057 -31.020213 -21.452779 -8.672424 43.853117 7.403312 -7.435405 -27.505927 -16.580586 5.569759 4.059590 9.419358 -11.918831 0.000000 0.000000 0.000000 10.621865 29.899303 3.410428 12.509538 5.000750 3.099916 7.159552 4.773906 1.113950 0.204072 -0.070248 -0.061866 0.000000 0.000000 0.000000 6.964391 7.111783 0.649060 -9.335226 -1.954635 -3.161637 -14.987549 -31.618353 -8.150712 0.000000 0.000000 0.000000 6.058600 5.825791 -0.373587 4.352817 4.292948 -10.001657 3.473302 -3.866255 3.176540 -8.209338 11.005133 -50.381699 0.194717 -42.553482 0.944400 0.000000 0.000000 0.000000 8.830309 6.636266 0.192802 -0.129382 18.432324 -0.523532 2.492812 0.513418 0.373460 -39.038196 -1.231428 39.703613 -23.887779 39.672184 13.753390 0.000000 0.000000 0.000000 
8.247211 95.239685 18.250872 0.000000 0.000000 0.000000 8.954431 25.713444 4.606544 -49.328459 18.788216 6.576068 36.267376 -1.797063 4.599773 7.870391 24.631404 -10.304080 -0.743677 -3.893385 7.391797 0.000000 0.000000 0.000000 12.119004 26.187982 3.195379 -26.749497 -23.814098 -7.783309 45.268318 8.049664 -7.494157 -29.855358 -17.576855 7.411122 3.046273 9.852414 -15.013396 0.000000 0.000000 0.000000 8.630438 30.442194 3.043182 11.668792 5.222359 2.353554 6.550792 4.637032 1.252756 0.252717 0.021266 0.005652 0.000000 0.000000 0.000000 5.864583 6.962957 1.036276 -8.182499 -2.105746 -4.031730 -12.438953 -38.367901 -4.733028 0.000000 0.000000 0.000000 5.072705 5.768804 -0.277381 4.561170 4.871128 -8.599453 3.181452 -4.783736 2.635235 -3.341058 12.444019 -48.700328 -1.380912 -46.116307 0.952844 0.000000 0.000000 0.000000 7.910859 6.628740 0.379192 -0.475254 18.047409 -2.628203 3.805320 0.378556 1.206335 -40.012440 5.434744 39.898062 -22.756614 41.751000 12.628531 0.000000 0.000000 0.000000 
8.827847 94.910194 21.180626 0.000000 0.000000 0.000000 8.691346 25.592729 3.500349 -47.332398 18.972869 7.289589 36.027868 -2.911795 4.584143 6.023694 23.069097 -8.877475 -1.461016 -4.286522 7.682425 0.000000 0.000000 0.000000 10.926796 26.807963 2.374027 -22.819469 -25.361478 -6.497717 44.629877 8.525477 -7.355280 -29.101851 -18.481414 9.165116 0.910751 10.090022 -17.048391 0.000000 0.000000 0.000000 7.313585 30.895859 2.330537 10.244043 4.993404 1.664075 5.822936 4.210074 1.170752 0.259196 0.063539 0.029267 0.000000 0.000000 0.000000 4.846127 6.568836 1.125068 -6.550525 -1.993018 -5.080694 -10.144268 -43.134622 -1.064911 0.000000 0.000000 0.000000 4.065344 5.463393 -0.393615 4.617001 4.936081 -7.200328 2.863278 -5.269868 2.037314 0.174320 15.107397 -45.188911 -2.950760 -49.960419 0.663863 0.000000 0.000000 0.000000 6.940039 6.332548 0.351025 -0.737349 17.390071 -4.768115 5.153823 -0.179840 2.386267 -38.703725 10.199206 40.127908 -21.026891 45.051187 11.169646 0.000000 0.000000 0.000000 
